<?xml version="1.0" standalone="no"?>
<svg xmlns="http://www.w3.org/2000/svg" version="1.1" width="10000" height="10000">
	<!-- Created with https://api.qrserver.com (QR Code API, see goQR.me/api for information) -->
	<title>QR Code</title>
	<desc>opuigiii</desc>
	<rect style="fill:rgb(0, 0, 0);fill-opacity:1" x="0" y="0" width="10000" height="10000" />
	<g id="elements">
		<path style="fill:rgb(255, 0, 0)" d="M 0,0 l 400,0 0,400 -400,0 z M 400,0 l 400,0 0,400 -400,0 z M 800,0 l 400,0 0,400 -400,0 z M 1200,0 l 400,0 0,400 -400,0 z M 1600,0 l 400,0 0,400 -400,0 z M 2000,0 l 400,0 0,400 -400,0 z M 2400,0 l 400,0 0,400 -400,0 z M 3200,0 l 400,0 0,400 -400,0 z M 4400,0 l 400,0 0,400 -400,0 z M 4800,0 l 400,0 0,400 -400,0 z M 5600,0 l 400,0 0,400 -400,0 z M 7200,0 l 400,0 0,400 -400,0 z M 7600,0 l 400,0 0,400 -400,0 z M 8000,0 l 400,0 0,400 -400,0 z M 8400,0 l 400,0 0,400 -400,0 z M 8800,0 l 400,0 0,400 -400,0 z M 9200,0 l 400,0 0,400 -400,0 z M 9600,0 l 400,0 0,400 -400,0 z M 0,400 l 400,0 0,400 -400,0 z M 2400,400 l 400,0 0,400 -400,0 z M 3200,400 l 400,0 0,400 -400,0 z M 4400,400 l 400,0 0,400 -400,0 z M 5600,400 l 400,0 0,400 -400,0 z M 6000,400 l 400,0 0,400 -400,0 z M 6400,400 l 400,0 0,400 -400,0 z M 7200,400 l 400,0 0,400 -400,0 z M 9600,400 l 400,0 0,400 -400,0 z M 0,800 l 400,0 0,400 -400,0 z M 800,800 l 400,0 0,400 -400,0 z M 1200,800 l 400,0 0,400 -400,0 z M 1600,800 l 400,0 0,400 -400,0 z M 2400,800 l 400,0 0,400 -400,0 z M 3200,800 l 400,0 0,400 -400,0 z M 3600,800 l 400,0 0,400 -400,0 z M 4000,800 l 400,0 0,400 -400,0 z M 4800,800 l 400,0 0,400 -400,0 z M 7200,800 l 400,0 0,400 -400,0 z M 8000,800 l 400,0 0,400 -400,0 z M 8400,800 l 400,0 0,400 -400,0 z M 8800,800 l 400,0 0,400 -400,0 z M 9600,800 l 400,0 0,400 -400,0 z M 0,1200 l 400,0 0,400 -400,0 z M 800,1200 l 400,0 0,400 -400,0 z M 1200,1200 l 400,0 0,400 -400,0 z M 1600,1200 l 400,0 0,400 -400,0 z M 2400,1200 l 400,0 0,400 -400,0 z M 4000,1200 l 400,0 0,400 -400,0 z M 4400,1200 l 400,0 0,400 -400,0 z M 5200,1200 l 400,0 0,400 -400,0 z M 6400,1200 l 400,0 0,400 -400,0 z M 7200,1200 l 400,0 0,400 -400,0 z M 8000,1200 l 400,0 0,400 -400,0 z M 8400,1200 l 400,0 0,400 -400,0 z M 8800,1200 l 400,0 0,400 -400,0 z M 9600,1200 l 400,0 0,400 -400,0 z M 0,1600 l 400,0 0,400 -400,0 z M 800,1600 l 400,0 0,400 -400,0 z M 1200,1600 l 400,0 0,400 -400,0 z M 1600,1600 l 400,0 0,400 -400,0 z M 2400,1600 l 400,0 0,400 -400,0 z M 3600,1600 l 400,0 0,400 -400,0 z M 4000,1600 l 400,0 0,400 -400,0 z M 4400,1600 l 400,0 0,400 -400,0 z M 4800,1600 l 400,0 0,400 -400,0 z M 6000,1600 l 400,0 0,400 -400,0 z M 7200,1600 l 400,0 0,400 -400,0 z M 8000,1600 l 400,0 0,400 -400,0 z M 8400,1600 l 400,0 0,400 -400,0 z M 8800,1600 l 400,0 0,400 -400,0 z M 9600,1600 l 400,0 0,400 -400,0 z M 0,2000 l 400,0 0,400 -400,0 z M 2400,2000 l 400,0 0,400 -400,0 z M 3200,2000 l 400,0 0,400 -400,0 z M 3600,2000 l 400,0 0,400 -400,0 z M 4400,2000 l 400,0 0,400 -400,0 z M 4800,2000 l 400,0 0,400 -400,0 z M 5600,2000 l 400,0 0,400 -400,0 z M 7200,2000 l 400,0 0,400 -400,0 z M 9600,2000 l 400,0 0,400 -400,0 z M 0,2400 l 400,0 0,400 -400,0 z M 400,2400 l 400,0 0,400 -400,0 z M 800,2400 l 400,0 0,400 -400,0 z M 1200,2400 l 400,0 0,400 -400,0 z M 1600,2400 l 400,0 0,400 -400,0 z M 2000,2400 l 400,0 0,400 -400,0 z M 2400,2400 l 400,0 0,400 -400,0 z M 3200,2400 l 400,0 0,400 -400,0 z M 4000,2400 l 400,0 0,400 -400,0 z M 4800,2400 l 400,0 0,400 -400,0 z M 5600,2400 l 400,0 0,400 -400,0 z M 6400,2400 l 400,0 0,400 -400,0 z M 7200,2400 l 400,0 0,400 -400,0 z M 7600,2400 l 400,0 0,400 -400,0 z M 8000,2400 l 400,0 0,400 -400,0 z M 8400,2400 l 400,0 0,400 -400,0 z M 8800,2400 l 400,0 0,400 -400,0 z M 9200,2400 l 400,0 0,400 -400,0 z M 9600,2400 l 400,0 0,400 -400,0 z M 3200,2800 l 400,0 0,400 -400,0 z M 4000,2800 l 400,0 0,400 -400,0 z M 4400,2800 l 400,0 0,400 -400,0 z M 5600,2800 l 400,0 0,400 -400,0 z M 6000,2800 l 400,0 0,400 -400,0 z M 6400,2800 l 400,0 0,400 -400,0 z M 800,3200 l 400,0 0,400 -400,0 z M 1200,3200 l 400,0 0,400 -400,0 z M 1600,3200 l 400,0 0,400 -400,0 z M 2400,3200 l 400,0 0,400 -400,0 z M 3200,3200 l 400,0 0,400 -400,0 z M 3600,3200 l 400,0 0,400 -400,0 z M 4400,3200 l 400,0 0,400 -400,0 z M 4800,3200 l 400,0 0,400 -400,0 z M 5200,3200 l 400,0 0,400 -400,0 z M 5600,3200 l 400,0 0,400 -400,0 z M 6000,3200 l 400,0 0,400 -400,0 z M 6800,3200 l 400,0 0,400 -400,0 z M 7200,3200 l 400,0 0,400 -400,0 z M 7600,3200 l 400,0 0,400 -400,0 z M 8800,3200 l 400,0 0,400 -400,0 z M 9200,3200 l 400,0 0,400 -400,0 z M 9600,3200 l 400,0 0,400 -400,0 z M 0,3600 l 400,0 0,400 -400,0 z M 400,3600 l 400,0 0,400 -400,0 z M 4800,3600 l 400,0 0,400 -400,0 z M 6000,3600 l 400,0 0,400 -400,0 z M 7200,3600 l 400,0 0,400 -400,0 z M 7600,3600 l 400,0 0,400 -400,0 z M 8000,3600 l 400,0 0,400 -400,0 z M 9200,3600 l 400,0 0,400 -400,0 z M 0,4000 l 400,0 0,400 -400,0 z M 400,4000 l 400,0 0,400 -400,0 z M 2400,4000 l 400,0 0,400 -400,0 z M 3200,4000 l 400,0 0,400 -400,0 z M 4000,4000 l 400,0 0,400 -400,0 z M 4400,4000 l 400,0 0,400 -400,0 z M 5600,4000 l 400,0 0,400 -400,0 z M 6000,4000 l 400,0 0,400 -400,0 z M 6400,4000 l 400,0 0,400 -400,0 z M 7200,4000 l 400,0 0,400 -400,0 z M 8000,4000 l 400,0 0,400 -400,0 z M 9200,4000 l 400,0 0,400 -400,0 z M 9600,4000 l 400,0 0,400 -400,0 z M 400,4400 l 400,0 0,400 -400,0 z M 1200,4400 l 400,0 0,400 -400,0 z M 1600,4400 l 400,0 0,400 -400,0 z M 2000,4400 l 400,0 0,400 -400,0 z M 2800,4400 l 400,0 0,400 -400,0 z M 3200,4400 l 400,0 0,400 -400,0 z M 4800,4400 l 400,0 0,400 -400,0 z M 5200,4400 l 400,0 0,400 -400,0 z M 5600,4400 l 400,0 0,400 -400,0 z M 6800,4400 l 400,0 0,400 -400,0 z M 7200,4400 l 400,0 0,400 -400,0 z M 7600,4400 l 400,0 0,400 -400,0 z M 8000,4400 l 400,0 0,400 -400,0 z M 9600,4400 l 400,0 0,400 -400,0 z M 0,4800 l 400,0 0,400 -400,0 z M 2400,4800 l 400,0 0,400 -400,0 z M 2800,4800 l 400,0 0,400 -400,0 z M 3200,4800 l 400,0 0,400 -400,0 z M 4800,4800 l 400,0 0,400 -400,0 z M 5200,4800 l 400,0 0,400 -400,0 z M 5600,4800 l 400,0 0,400 -400,0 z M 6000,4800 l 400,0 0,400 -400,0 z M 6400,4800 l 400,0 0,400 -400,0 z M 7200,4800 l 400,0 0,400 -400,0 z M 8400,4800 l 400,0 0,400 -400,0 z M 8800,4800 l 400,0 0,400 -400,0 z M 9600,4800 l 400,0 0,400 -400,0 z M 0,5200 l 400,0 0,400 -400,0 z M 400,5200 l 400,0 0,400 -400,0 z M 1600,5200 l 400,0 0,400 -400,0 z M 2000,5200 l 400,0 0,400 -400,0 z M 4000,5200 l 400,0 0,400 -400,0 z M 5200,5200 l 400,0 0,400 -400,0 z M 5600,5200 l 400,0 0,400 -400,0 z M 6000,5200 l 400,0 0,400 -400,0 z M 6800,5200 l 400,0 0,400 -400,0 z M 7200,5200 l 400,0 0,400 -400,0 z M 8400,5200 l 400,0 0,400 -400,0 z M 8800,5200 l 400,0 0,400 -400,0 z M 9200,5200 l 400,0 0,400 -400,0 z M 0,5600 l 400,0 0,400 -400,0 z M 2400,5600 l 400,0 0,400 -400,0 z M 2800,5600 l 400,0 0,400 -400,0 z M 3200,5600 l 400,0 0,400 -400,0 z M 3600,5600 l 400,0 0,400 -400,0 z M 4000,5600 l 400,0 0,400 -400,0 z M 5600,5600 l 400,0 0,400 -400,0 z M 6000,5600 l 400,0 0,400 -400,0 z M 6400,5600 l 400,0 0,400 -400,0 z M 6800,5600 l 400,0 0,400 -400,0 z M 7600,5600 l 400,0 0,400 -400,0 z M 9200,5600 l 400,0 0,400 -400,0 z M 9600,5600 l 400,0 0,400 -400,0 z M 0,6000 l 400,0 0,400 -400,0 z M 1600,6000 l 400,0 0,400 -400,0 z M 2000,6000 l 400,0 0,400 -400,0 z M 3200,6000 l 400,0 0,400 -400,0 z M 4800,6000 l 400,0 0,400 -400,0 z M 5200,6000 l 400,0 0,400 -400,0 z M 6000,6000 l 400,0 0,400 -400,0 z M 8000,6000 l 400,0 0,400 -400,0 z M 9200,6000 l 400,0 0,400 -400,0 z M 0,6400 l 400,0 0,400 -400,0 z M 800,6400 l 400,0 0,400 -400,0 z M 1200,6400 l 400,0 0,400 -400,0 z M 1600,6400 l 400,0 0,400 -400,0 z M 2400,6400 l 400,0 0,400 -400,0 z M 2800,6400 l 400,0 0,400 -400,0 z M 3200,6400 l 400,0 0,400 -400,0 z M 4800,6400 l 400,0 0,400 -400,0 z M 6000,6400 l 400,0 0,400 -400,0 z M 6400,6400 l 400,0 0,400 -400,0 z M 6800,6400 l 400,0 0,400 -400,0 z M 7200,6400 l 400,0 0,400 -400,0 z M 7600,6400 l 400,0 0,400 -400,0 z M 8000,6400 l 400,0 0,400 -400,0 z M 8400,6400 l 400,0 0,400 -400,0 z M 8800,6400 l 400,0 0,400 -400,0 z M 9200,6400 l 400,0 0,400 -400,0 z M 3200,6800 l 400,0 0,400 -400,0 z M 4400,6800 l 400,0 0,400 -400,0 z M 4800,6800 l 400,0 0,400 -400,0 z M 5200,6800 l 400,0 0,400 -400,0 z M 5600,6800 l 400,0 0,400 -400,0 z M 6000,6800 l 400,0 0,400 -400,0 z M 6400,6800 l 400,0 0,400 -400,0 z M 8000,6800 l 400,0 0,400 -400,0 z M 0,7200 l 400,0 0,400 -400,0 z M 400,7200 l 400,0 0,400 -400,0 z M 800,7200 l 400,0 0,400 -400,0 z M 1200,7200 l 400,0 0,400 -400,0 z M 1600,7200 l 400,0 0,400 -400,0 z M 2000,7200 l 400,0 0,400 -400,0 z M 2400,7200 l 400,0 0,400 -400,0 z M 4000,7200 l 400,0 0,400 -400,0 z M 4400,7200 l 400,0 0,400 -400,0 z M 4800,7200 l 400,0 0,400 -400,0 z M 5600,7200 l 400,0 0,400 -400,0 z M 6000,7200 l 400,0 0,400 -400,0 z M 6400,7200 l 400,0 0,400 -400,0 z M 7200,7200 l 400,0 0,400 -400,0 z M 8000,7200 l 400,0 0,400 -400,0 z M 8800,7200 l 400,0 0,400 -400,0 z M 9200,7200 l 400,0 0,400 -400,0 z M 9600,7200 l 400,0 0,400 -400,0 z M 0,7600 l 400,0 0,400 -400,0 z M 2400,7600 l 400,0 0,400 -400,0 z M 4000,7600 l 400,0 0,400 -400,0 z M 4800,7600 l 400,0 0,400 -400,0 z M 5200,7600 l 400,0 0,400 -400,0 z M 6400,7600 l 400,0 0,400 -400,0 z M 8000,7600 l 400,0 0,400 -400,0 z M 9600,7600 l 400,0 0,400 -400,0 z M 0,8000 l 400,0 0,400 -400,0 z M 800,8000 l 400,0 0,400 -400,0 z M 1200,8000 l 400,0 0,400 -400,0 z M 1600,8000 l 400,0 0,400 -400,0 z M 2400,8000 l 400,0 0,400 -400,0 z M 3200,8000 l 400,0 0,400 -400,0 z M 5200,8000 l 400,0 0,400 -400,0 z M 5600,8000 l 400,0 0,400 -400,0 z M 6400,8000 l 400,0 0,400 -400,0 z M 6800,8000 l 400,0 0,400 -400,0 z M 7200,8000 l 400,0 0,400 -400,0 z M 7600,8000 l 400,0 0,400 -400,0 z M 8000,8000 l 400,0 0,400 -400,0 z M 8400,8000 l 400,0 0,400 -400,0 z M 8800,8000 l 400,0 0,400 -400,0 z M 0,8400 l 400,0 0,400 -400,0 z M 800,8400 l 400,0 0,400 -400,0 z M 1200,8400 l 400,0 0,400 -400,0 z M 1600,8400 l 400,0 0,400 -400,0 z M 2400,8400 l 400,0 0,400 -400,0 z M 3200,8400 l 400,0 0,400 -400,0 z M 4400,8400 l 400,0 0,400 -400,0 z M 5200,8400 l 400,0 0,400 -400,0 z M 5600,8400 l 400,0 0,400 -400,0 z M 6000,8400 l 400,0 0,400 -400,0 z M 6400,8400 l 400,0 0,400 -400,0 z M 6800,8400 l 400,0 0,400 -400,0 z M 8000,8400 l 400,0 0,400 -400,0 z M 8400,8400 l 400,0 0,400 -400,0 z M 8800,8400 l 400,0 0,400 -400,0 z M 9600,8400 l 400,0 0,400 -400,0 z M 0,8800 l 400,0 0,400 -400,0 z M 800,8800 l 400,0 0,400 -400,0 z M 1200,8800 l 400,0 0,400 -400,0 z M 1600,8800 l 400,0 0,400 -400,0 z M 2400,8800 l 400,0 0,400 -400,0 z M 3200,8800 l 400,0 0,400 -400,0 z M 5600,8800 l 400,0 0,400 -400,0 z M 6400,8800 l 400,0 0,400 -400,0 z M 7200,8800 l 400,0 0,400 -400,0 z M 7600,8800 l 400,0 0,400 -400,0 z M 9600,8800 l 400,0 0,400 -400,0 z M 0,9200 l 400,0 0,400 -400,0 z M 2400,9200 l 400,0 0,400 -400,0 z M 3600,9200 l 400,0 0,400 -400,0 z M 4000,9200 l 400,0 0,400 -400,0 z M 4400,9200 l 400,0 0,400 -400,0 z M 4800,9200 l 400,0 0,400 -400,0 z M 5200,9200 l 400,0 0,400 -400,0 z M 5600,9200 l 400,0 0,400 -400,0 z M 7200,9200 l 400,0 0,400 -400,0 z M 7600,9200 l 400,0 0,400 -400,0 z M 9600,9200 l 400,0 0,400 -400,0 z M 0,9600 l 400,0 0,400 -400,0 z M 400,9600 l 400,0 0,400 -400,0 z M 800,9600 l 400,0 0,400 -400,0 z M 1200,9600 l 400,0 0,400 -400,0 z M 1600,9600 l 400,0 0,400 -400,0 z M 2000,9600 l 400,0 0,400 -400,0 z M 2400,9600 l 400,0 0,400 -400,0 z M 3600,9600 l 400,0 0,400 -400,0 z M 4800,9600 l 400,0 0,400 -400,0 z M 5600,9600 l 400,0 0,400 -400,0 z M 6000,9600 l 400,0 0,400 -400,0 z M 6800,9600 l 400,0 0,400 -400,0 z M 7200,9600 l 400,0 0,400 -400,0 z M 8000,9600 l 400,0 0,400 -400,0 z M 8400,9600 l 400,0 0,400 -400,0 z M 8800,9600 l 400,0 0,400 -400,0 z M 9200,9600 l 400,0 0,400 -400,0 z M 9600,9600 l 400,0 0,400 -400,0 z " />
	</g>
</svg>
