<?xml version="1.0" standalone="no"?>
<svg xmlns="http://www.w3.org/2000/svg" version="1.1" width="987" height="987">
	<!-- Created with https://api.qrserver.com (QR Code API, see goQR.me/api for information) -->
	<title>QR Code</title>
	<desc>rt</desc>
	<rect style="fill:rgb(0, 0, 0);fill-opacity:1" x="0" y="0" width="987" height="987" />
	<g id="elements">
		<path style="fill:rgb(255, 0, 0)" d="M 0,0 l 47,0 0,47 -47,0 z M 47,0 l 47,0 0,47 -47,0 z M 94,0 l 47,0 0,47 -47,0 z M 141,0 l 47,0 0,47 -47,0 z M 188,0 l 47,0 0,47 -47,0 z M 235,0 l 47,0 0,47 -47,0 z M 282,0 l 47,0 0,47 -47,0 z M 376,0 l 47,0 0,47 -47,0 z M 423,0 l 47,0 0,47 -47,0 z M 658,0 l 47,0 0,47 -47,0 z M 705,0 l 47,0 0,47 -47,0 z M 752,0 l 47,0 0,47 -47,0 z M 799,0 l 47,0 0,47 -47,0 z M 846,0 l 47,0 0,47 -47,0 z M 893,0 l 47,0 0,47 -47,0 z M 940,0 l 47,0 0,47 -47,0 z M 0,47 l 47,0 0,47 -47,0 z M 282,47 l 47,0 0,47 -47,0 z M 376,47 l 47,0 0,47 -47,0 z M 517,47 l 47,0 0,47 -47,0 z M 658,47 l 47,0 0,47 -47,0 z M 940,47 l 47,0 0,47 -47,0 z M 0,94 l 47,0 0,47 -47,0 z M 94,94 l 47,0 0,47 -47,0 z M 141,94 l 47,0 0,47 -47,0 z M 188,94 l 47,0 0,47 -47,0 z M 282,94 l 47,0 0,47 -47,0 z M 376,94 l 47,0 0,47 -47,0 z M 423,94 l 47,0 0,47 -47,0 z M 564,94 l 47,0 0,47 -47,0 z M 658,94 l 47,0 0,47 -47,0 z M 752,94 l 47,0 0,47 -47,0 z M 799,94 l 47,0 0,47 -47,0 z M 846,94 l 47,0 0,47 -47,0 z M 940,94 l 47,0 0,47 -47,0 z M 0,141 l 47,0 0,47 -47,0 z M 94,141 l 47,0 0,47 -47,0 z M 141,141 l 47,0 0,47 -47,0 z M 188,141 l 47,0 0,47 -47,0 z M 282,141 l 47,0 0,47 -47,0 z M 423,141 l 47,0 0,47 -47,0 z M 470,141 l 47,0 0,47 -47,0 z M 517,141 l 47,0 0,47 -47,0 z M 658,141 l 47,0 0,47 -47,0 z M 752,141 l 47,0 0,47 -47,0 z M 799,141 l 47,0 0,47 -47,0 z M 846,141 l 47,0 0,47 -47,0 z M 940,141 l 47,0 0,47 -47,0 z M 0,188 l 47,0 0,47 -47,0 z M 94,188 l 47,0 0,47 -47,0 z M 141,188 l 47,0 0,47 -47,0 z M 188,188 l 47,0 0,47 -47,0 z M 282,188 l 47,0 0,47 -47,0 z M 423,188 l 47,0 0,47 -47,0 z M 470,188 l 47,0 0,47 -47,0 z M 658,188 l 47,0 0,47 -47,0 z M 752,188 l 47,0 0,47 -47,0 z M 799,188 l 47,0 0,47 -47,0 z M 846,188 l 47,0 0,47 -47,0 z M 940,188 l 47,0 0,47 -47,0 z M 0,235 l 47,0 0,47 -47,0 z M 282,235 l 47,0 0,47 -47,0 z M 376,235 l 47,0 0,47 -47,0 z M 470,235 l 47,0 0,47 -47,0 z M 564,235 l 47,0 0,47 -47,0 z M 658,235 l 47,0 0,47 -47,0 z M 940,235 l 47,0 0,47 -47,0 z M 0,282 l 47,0 0,47 -47,0 z M 47,282 l 47,0 0,47 -47,0 z M 94,282 l 47,0 0,47 -47,0 z M 141,282 l 47,0 0,47 -47,0 z M 188,282 l 47,0 0,47 -47,0 z M 235,282 l 47,0 0,47 -47,0 z M 282,282 l 47,0 0,47 -47,0 z M 376,282 l 47,0 0,47 -47,0 z M 470,282 l 47,0 0,47 -47,0 z M 564,282 l 47,0 0,47 -47,0 z M 658,282 l 47,0 0,47 -47,0 z M 705,282 l 47,0 0,47 -47,0 z M 752,282 l 47,0 0,47 -47,0 z M 799,282 l 47,0 0,47 -47,0 z M 846,282 l 47,0 0,47 -47,0 z M 893,282 l 47,0 0,47 -47,0 z M 940,282 l 47,0 0,47 -47,0 z M 376,329 l 47,0 0,47 -47,0 z M 423,329 l 47,0 0,47 -47,0 z M 517,329 l 47,0 0,47 -47,0 z M 94,376 l 47,0 0,47 -47,0 z M 141,376 l 47,0 0,47 -47,0 z M 188,376 l 47,0 0,47 -47,0 z M 282,376 l 47,0 0,47 -47,0 z M 376,376 l 47,0 0,47 -47,0 z M 423,376 l 47,0 0,47 -47,0 z M 470,376 l 47,0 0,47 -47,0 z M 564,376 l 47,0 0,47 -47,0 z M 611,376 l 47,0 0,47 -47,0 z M 658,376 l 47,0 0,47 -47,0 z M 705,376 l 47,0 0,47 -47,0 z M 846,376 l 47,0 0,47 -47,0 z M 893,376 l 47,0 0,47 -47,0 z M 940,376 l 47,0 0,47 -47,0 z M 141,423 l 47,0 0,47 -47,0 z M 188,423 l 47,0 0,47 -47,0 z M 470,423 l 47,0 0,47 -47,0 z M 517,423 l 47,0 0,47 -47,0 z M 611,423 l 47,0 0,47 -47,0 z M 658,423 l 47,0 0,47 -47,0 z M 705,423 l 47,0 0,47 -47,0 z M 799,423 l 47,0 0,47 -47,0 z M 846,423 l 47,0 0,47 -47,0 z M 893,423 l 47,0 0,47 -47,0 z M 940,423 l 47,0 0,47 -47,0 z M 47,470 l 47,0 0,47 -47,0 z M 94,470 l 47,0 0,47 -47,0 z M 235,470 l 47,0 0,47 -47,0 z M 282,470 l 47,0 0,47 -47,0 z M 376,470 l 47,0 0,47 -47,0 z M 470,470 l 47,0 0,47 -47,0 z M 752,470 l 47,0 0,47 -47,0 z M 846,470 l 47,0 0,47 -47,0 z M 893,470 l 47,0 0,47 -47,0 z M 94,517 l 47,0 0,47 -47,0 z M 235,517 l 47,0 0,47 -47,0 z M 329,517 l 47,0 0,47 -47,0 z M 376,517 l 47,0 0,47 -47,0 z M 423,517 l 47,0 0,47 -47,0 z M 470,517 l 47,0 0,47 -47,0 z M 611,517 l 47,0 0,47 -47,0 z M 658,517 l 47,0 0,47 -47,0 z M 705,517 l 47,0 0,47 -47,0 z M 752,517 l 47,0 0,47 -47,0 z M 846,517 l 47,0 0,47 -47,0 z M 940,517 l 47,0 0,47 -47,0 z M 0,564 l 47,0 0,47 -47,0 z M 141,564 l 47,0 0,47 -47,0 z M 188,564 l 47,0 0,47 -47,0 z M 282,564 l 47,0 0,47 -47,0 z M 329,564 l 47,0 0,47 -47,0 z M 376,564 l 47,0 0,47 -47,0 z M 423,564 l 47,0 0,47 -47,0 z M 658,564 l 47,0 0,47 -47,0 z M 752,564 l 47,0 0,47 -47,0 z M 846,564 l 47,0 0,47 -47,0 z M 376,611 l 47,0 0,47 -47,0 z M 423,611 l 47,0 0,47 -47,0 z M 564,611 l 47,0 0,47 -47,0 z M 611,611 l 47,0 0,47 -47,0 z M 658,611 l 47,0 0,47 -47,0 z M 799,611 l 47,0 0,47 -47,0 z M 893,611 l 47,0 0,47 -47,0 z M 940,611 l 47,0 0,47 -47,0 z M 0,658 l 47,0 0,47 -47,0 z M 47,658 l 47,0 0,47 -47,0 z M 94,658 l 47,0 0,47 -47,0 z M 141,658 l 47,0 0,47 -47,0 z M 188,658 l 47,0 0,47 -47,0 z M 235,658 l 47,0 0,47 -47,0 z M 282,658 l 47,0 0,47 -47,0 z M 517,658 l 47,0 0,47 -47,0 z M 611,658 l 47,0 0,47 -47,0 z M 705,658 l 47,0 0,47 -47,0 z M 893,658 l 47,0 0,47 -47,0 z M 0,705 l 47,0 0,47 -47,0 z M 282,705 l 47,0 0,47 -47,0 z M 423,705 l 47,0 0,47 -47,0 z M 517,705 l 47,0 0,47 -47,0 z M 799,705 l 47,0 0,47 -47,0 z M 940,705 l 47,0 0,47 -47,0 z M 0,752 l 47,0 0,47 -47,0 z M 94,752 l 47,0 0,47 -47,0 z M 141,752 l 47,0 0,47 -47,0 z M 188,752 l 47,0 0,47 -47,0 z M 282,752 l 47,0 0,47 -47,0 z M 376,752 l 47,0 0,47 -47,0 z M 423,752 l 47,0 0,47 -47,0 z M 470,752 l 47,0 0,47 -47,0 z M 517,752 l 47,0 0,47 -47,0 z M 564,752 l 47,0 0,47 -47,0 z M 611,752 l 47,0 0,47 -47,0 z M 658,752 l 47,0 0,47 -47,0 z M 705,752 l 47,0 0,47 -47,0 z M 846,752 l 47,0 0,47 -47,0 z M 0,799 l 47,0 0,47 -47,0 z M 94,799 l 47,0 0,47 -47,0 z M 141,799 l 47,0 0,47 -47,0 z M 188,799 l 47,0 0,47 -47,0 z M 282,799 l 47,0 0,47 -47,0 z M 376,799 l 47,0 0,47 -47,0 z M 470,799 l 47,0 0,47 -47,0 z M 564,799 l 47,0 0,47 -47,0 z M 658,799 l 47,0 0,47 -47,0 z M 705,799 l 47,0 0,47 -47,0 z M 846,799 l 47,0 0,47 -47,0 z M 0,846 l 47,0 0,47 -47,0 z M 94,846 l 47,0 0,47 -47,0 z M 141,846 l 47,0 0,47 -47,0 z M 188,846 l 47,0 0,47 -47,0 z M 282,846 l 47,0 0,47 -47,0 z M 376,846 l 47,0 0,47 -47,0 z M 423,846 l 47,0 0,47 -47,0 z M 517,846 l 47,0 0,47 -47,0 z M 564,846 l 47,0 0,47 -47,0 z M 611,846 l 47,0 0,47 -47,0 z M 752,846 l 47,0 0,47 -47,0 z M 799,846 l 47,0 0,47 -47,0 z M 846,846 l 47,0 0,47 -47,0 z M 0,893 l 47,0 0,47 -47,0 z M 282,893 l 47,0 0,47 -47,0 z M 517,893 l 47,0 0,47 -47,0 z M 564,893 l 47,0 0,47 -47,0 z M 658,893 l 47,0 0,47 -47,0 z M 705,893 l 47,0 0,47 -47,0 z M 752,893 l 47,0 0,47 -47,0 z M 846,893 l 47,0 0,47 -47,0 z M 0,940 l 47,0 0,47 -47,0 z M 47,940 l 47,0 0,47 -47,0 z M 94,940 l 47,0 0,47 -47,0 z M 141,940 l 47,0 0,47 -47,0 z M 188,940 l 47,0 0,47 -47,0 z M 235,940 l 47,0 0,47 -47,0 z M 282,940 l 47,0 0,47 -47,0 z M 564,940 l 47,0 0,47 -47,0 z M 752,940 l 47,0 0,47 -47,0 z M 799,940 l 47,0 0,47 -47,0 z M 846,940 l 47,0 0,47 -47,0 z M 893,940 l 47,0 0,47 -47,0 z " />
	</g>
</svg>
